<?xml version="1.0" encoding="iso-8859-1"?>
<!-- Generator: Adobe Illustrator 19.0.0, SVG Export Plug-In . SVG Version: 6.00 Build 0)  -->
<svg version="1.1" id="Capa_1" xmlns="http://www.w3.org/2000/svg" xmlns:xlink="http://www.w3.org/1999/xlink" x="0px" y="0px"
	 viewBox="0 0 490.667 490.667" style="enable-background:new 0 0 490.667 490.667;" xml:space="preserve">
<path style="fill:#FFC107;" d="M458.667,222.169H32c-5.891,0-10.667,4.776-10.667,10.667v192c0,29.455,23.878,53.333,53.333,53.333
	H416c29.455,0,53.333-23.878,53.333-53.333v-192C469.333,226.945,464.558,222.169,458.667,222.169z"/>
<path style="fill:#FFD54F;" d="M32,115.503h426.667c17.673,0,32,14.327,32,32v64c0,17.673-14.327,32-32,32H32
	c-17.673,0-32-14.327-32-32v-64C0,129.83,14.327,115.503,32,115.503z"/>
<g>
	<path style="fill:#F44336;" d="M245.333,136.836c-51.825-0.219-97.446-34.218-112.469-83.819l0,0
		c-4.767-16.945,5.105-34.545,22.049-39.313c5.639-1.587,11.607-1.588,17.247-0.005c49.609,15.016,83.618,60.638,83.84,112.469
		C256,132.061,251.224,136.836,245.333,136.836z M153.323,46.895c11.081,36.598,42.708,63.215,80.661,67.883
		c-4.663-37.967-31.291-69.606-67.904-80.683c-5.643-1.426-11.374,1.992-12.8,7.635c-0.428,1.695-0.428,3.47,0,5.165L153.323,46.895
		z"/>
	<path style="fill:#F44336;" d="M245.333,136.836c-5.891,0-10.667-4.776-10.667-10.667c0.222-51.831,34.231-97.453,83.84-112.469
		c16.943-4.774,34.548,5.09,39.322,22.032c1.595,5.659,1.593,11.648-0.005,17.306l0,0
		C342.79,102.638,297.161,136.629,245.333,136.836z M327.296,33.753c-0.918,0-1.831,0.137-2.709,0.405
		c-36.607,11.074-63.233,42.703-67.904,80.661c37.964-4.674,69.594-31.31,80.661-67.925l0,0c1.017-3.598-0.052-7.463-2.773-10.027
		C332.654,34.907,330.038,33.787,327.296,33.753z"/>
	<path style="fill:#F44336;" d="M181.333,200.836c-5.891,0.011-10.675-4.757-10.686-10.648c-0.005-2.84,1.123-5.565,3.134-7.571
		l64-64c4.092-4.237,10.845-4.355,15.083-0.262c4.237,4.092,4.355,10.845,0.262,15.083c-0.086,0.089-0.173,0.176-0.262,0.262l-64,64
		C186.868,199.702,184.16,200.83,181.333,200.836z"/>
	<rect x="234.667" y="115.503" style="fill:#F44336;" width="21.333" height="362.667"/>
	<path style="fill:#F44336;" d="M309.333,200.836c-2.831,0.005-5.548-1.115-7.552-3.115l-64-64
		c-4.092-4.237-3.975-10.99,0.262-15.083c4.134-3.992,10.687-3.992,14.82,0l64,64c4.159,4.172,4.149,10.926-0.024,15.085
		C314.847,199.711,312.148,200.83,309.333,200.836z"/>
</g>
<g>
</g>
<g>
</g>
<g>
</g>
<g>
</g>
<g>
</g>
<g>
</g>
<g>
</g>
<g>
</g>
<g>
</g>
<g>
</g>
<g>
</g>
<g>
</g>
<g>
</g>
<g>
</g>
<g>
</g>
</svg>
