<svg id="icons" enable-background="new 0 0 64 64" height="512" viewBox="0 0 64 64" width="512" xmlns="http://www.w3.org/2000/svg"><path d="m11 31.002c-.553 0-1-.447-1-1v-9.006c0-.553.447-1 1-1s1 .447 1 1v9.006c0 .553-.447 1-1 1z" fill="#545c66"/><path d="m11 44.004c-.553 0-1-.447-1-1v-9.006c0-.553.447-1 1-1s1 .447 1 1v9.006c0 .553-.447 1-1 1z" fill="#545c66"/><path d="m9 32.999h-8c-.553 0-1-.447-1-1s.447-1 1-1h8c.553 0 1 .447 1 1s-.447 1-1 1z" fill="#545c66"/><path d="m20.998 32.999h-7.998c-.553 0-1-.447-1-1s.447-1 1-1h7.998c.553 0 1 .447 1 1s-.447 1-1 1z" fill="#545c66"/><path d="m11 29.499c1.388 0 2.5 1.125 2.5 2.5s-1.112 2.5-2.5 2.5c-1.375 0-2.5-1.125-2.5-2.5s1.125-2.5 2.5-2.5z" fill="#656d78"/><path d="m43.002 21.996h-14.75c-.553 0-1 .447-1 1s.447 1 1 1h.247l.501 2.003h13.002c0 .553.447 1 1 1s1-.447 1-1v-3.003c0-.553-.447-1-1-1z" fill="#f6bb42"/><path d="m51.002 32.999h-8c-.553 0-1-.447-1-1s.447-1 1-1h8c.553 0 1 .447 1 1s-.447 1-1 1z" fill="#545c66"/><path d="m63 32.999h-7.998c-.553 0-1-.447-1-1s.447-1 1-1h7.998c.553 0 1 .447 1 1s-.447 1-1 1z" fill="#545c66"/><path d="m3.01 53.493c.001 1.1.9 1.999 2 1.999h3.99 4 3.99c1.1 0 1.999-.899 2-1.999h-15.93z" fill="#e6e9ed"/><path d="m3.01 53.493v-.001z" fill="#e6e9ed"/><path d="m18.99 53.492v.001z" fill="#e6e9ed"/><path d="m18.99 45.503v7.99h-15.93l-.05-1.001v-6.989c0-1.1.9-2 2-2h5.99 5.99c1.1 0 2 .9 2 2z" fill="#5d9cec"/><path d="m14 58.492v.01h-6v-.01l1-3h4z" fill="#ccd1d9"/><g fill="#e6e9ed"><path d="m13.999 59.497h-5.996c-.553 0-1-.447-1-1s.447-1 1-1h5.996c.553 0 1 .447 1 1s-.447 1-1 1z"/><path d="m16.99 55.992h-11.98c-1.379 0-2.5-1.121-2.5-2.5v-7.989c0-1.379 1.121-2.5 2.5-2.5h11.98c1.379 0 2.5 1.121 2.5 2.5v7.989c0 1.379-1.121 2.5-2.5 2.5zm-11.98-11.989c-.827 0-1.5.673-1.5 1.5v7.989c0 .827.673 1.5 1.5 1.5h11.98c.827 0 1.5-.673 1.5-1.5v-7.989c0-.827-.673-1.5-1.5-1.5z"/><path d="m3.01 14.993c.001 1.1.9 1.999 2 1.999h3.99 4 3.99c1.1 0 1.999-.899 2-1.999h-15.93z"/><path d="m3.01 14.993v-.001z"/><path d="m18.99 14.992v.001z"/></g><path d="m18.99 7.003v7.99h-15.93l-.05-1.001v-6.989c0-1.1.9-2 2-2h5.99 5.99c1.1 0 2 .9 2 2z" fill="#5d9cec"/><path d="m14 19.992v.01h-6v-.01l1-3h4z" fill="#ccd1d9"/><path d="m13.999 20.997h-5.996c-.553 0-1-.447-1-1s.447-1 1-1h5.996c.553 0 1 .447 1 1s-.447 1-1 1z" fill="#e6e9ed"/><path d="m16.99 17.492h-11.98c-1.379 0-2.5-1.121-2.5-2.5v-7.989c0-1.379 1.121-2.5 2.5-2.5h11.98c1.379 0 2.5 1.121 2.5 2.5v7.989c0 1.379-1.121 2.5-2.5 2.5zm-11.98-11.989c-.827 0-1.5.673-1.5 1.5v7.989c0 .827.673 1.5 1.5 1.5h11.98c.827 0 1.5-.673 1.5-1.5v-7.989c0-.827-.673-1.5-1.5-1.5z" fill="#e6e9ed"/><path d="m53.009 31.002c-.553 0-1-.447-1-1v-9.006c0-.553.447-1 1-1s1 .447 1 1v9.006c0 .553-.447 1-1 1z" fill="#545c66"/><path d="m53.009 44.004c-.553 0-1-.447-1-1v-9.006c0-.553.447-1 1-1s1 .447 1 1v9.006c0 .553-.447 1-1 1z" fill="#545c66"/><path d="m53.009 29.499c1.388 0 2.5 1.125 2.5 2.5s-1.112 2.5-2.5 2.5c-1.375 0-2.5-1.125-2.5-2.5s1.125-2.5 2.5-2.5z" fill="#656d78"/><path d="m45.019 53.493c.001 1.1.9 1.999 2 1.999h3.99 4 3.99c1.1 0 1.999-.899 2-1.999h-15.931z" fill="#e6e9ed"/><path d="m45.019 53.493v-.001z" fill="#e6e9ed"/><path d="m60.999 53.492v.001z" fill="#e6e9ed"/><path d="m60.999 45.503v7.99h-15.931l-.05-1.001v-6.989c0-1.1.9-2 2-2h5.99 5.99c1.101 0 2.001.9 2.001 2z" fill="#5d9cec"/><path d="m56.009 58.492v.01h-6v-.01l1-3h4z" fill="#ccd1d9"/><path d="m56.008 59.497h-5.996c-.553 0-1-.447-1-1s.447-1 1-1h5.996c.553 0 1 .447 1 1s-.447 1-1 1z" fill="#e6e9ed"/><path d="m58.999 55.992h-11.98c-1.379 0-2.5-1.121-2.5-2.5v-7.989c0-1.379 1.121-2.5 2.5-2.5h11.98c1.379 0 2.5 1.121 2.5 2.5v7.989c0 1.379-1.121 2.5-2.5 2.5zm-11.98-11.989c-.827 0-1.5.673-1.5 1.5v7.989c0 .827.673 1.5 1.5 1.5h11.98c.827 0 1.5-.673 1.5-1.5v-7.989c0-.827-.673-1.5-1.5-1.5z" fill="#e6e9ed"/><path d="m45.019 14.993c.001 1.1.9 1.999 2 1.999h3.99 4 3.99c1.1 0 1.999-.899 2-1.999h-15.931z" fill="#e6e9ed"/><path d="m45.019 14.993v-.001z" fill="#e6e9ed"/><path d="m60.999 14.992v.001z" fill="#e6e9ed"/><path d="m60.999 7.003v7.99h-15.931l-.05-1.001v-6.989c0-1.1.9-2 2-2h5.99 5.99c1.101 0 2.001.9 2.001 2z" fill="#5d9cec"/><path d="m56.009 19.992v.01h-6v-.01l1-3h4z" fill="#ccd1d9"/><path d="m56.008 20.997h-5.996c-.553 0-1-.447-1-1s.447-1 1-1h5.996c.553 0 1 .447 1 1s-.447 1-1 1z" fill="#e6e9ed"/><path d="m58.999 17.492h-11.98c-1.379 0-2.5-1.121-2.5-2.5v-7.989c0-1.379 1.121-2.5 2.5-2.5h11.98c1.379 0 2.5 1.121 2.5 2.5v7.989c0 1.379-1.121 2.5-2.5 2.5zm-11.98-11.989c-.827 0-1.5.673-1.5 1.5v7.989c0 .827.673 1.5 1.5 1.5h11.98c.827 0 1.5-.673 1.5-1.5v-7.989c0-.827-.673-1.5-1.5-1.5z" fill="#e6e9ed"/><path d="m43 24.999h-13.217l-.812-3.246c-.11-.445-.511-.758-.97-.758h-7.004c-.266 0-.52.105-.707.293-.188.188-.293.442-.293.708l.004 18.003c0 .553.447 1 1 1h21.999c.553 0 1-.447 1-1v-14c0-.553-.447-1-1-1z" fill="#ffce54"/></svg>