<svg id="Capa_1" enable-background="new 0 0 512 512" height="512" viewBox="0 0 512 512" width="512" xmlns="http://www.w3.org/2000/svg"><g><path d="m512 256c0 40.27-9.3 78.37-25.88 112.27-41.59 85.11-129.01 23.131-230.12 23.131s-188.53 61.979-230.12-23.131c-16.58-33.9-25.88-72-25.88-112.27s9.3-78.37 25.88-112.27c26.5-54.23 71.61-97.71 127.01-122.11 31.55-13.9 66.43-21.62 103.11-21.62s71.56 7.72 103.11 21.62c55.4 24.4 100.51 67.88 127.01 122.11 16.58 33.9 25.88 72 25.88 112.27z" fill="#dc4355"/><path d="m486.12 75.04v293.23c-5.8 11.87-12.5 23.23-20 33.98-46.25 66.34-123.12 109.75-210.12 109.75-50.223 0-97.071-14.466-136.6-39.459-5.597-3.539 4.462-11.569-.83-15.518-5.789-4.321-26.9-4.6-32.297-9.385-15.184-13.461-28.757-28.698-40.392-45.387-7.5-10.75-14.2-22.11-20-33.98v-293.231c0-29.5 23.92-53.42 53.43-53.42h353.38c29.509 0 53.429 23.92 53.429 53.42z" fill="#e9eeff"/><path d="m466.12 75.04v31.98h-420.24v-31.98c0-18.43 15-33.42 33.43-33.42h353.38c18.43 0 33.43 14.99 33.43 33.42z" fill="#d4daf8"/><path d="m466.12 127.02v275.23c-46.25 66.34-123.12 109.75-210.12 109.75-50.22 0-97.07-14.47-136.6-39.46-4.57-2.889 3.538-12.354-.831-15.518-6.836-4.95-25.997-3.794-32.299-9.382-15.18-13.46-28.76-28.7-40.39-45.39v-275.23z" fill="#d4daf8"/><g fill="#50405a"><path d="m400.661 183.609h-101.467c-6.876 0-12.449-5.574-12.449-12.449 0-6.876 5.574-12.449 12.449-12.449h101.467c6.876 0 12.449 5.574 12.449 12.449 0 6.875-5.574 12.449-12.449 12.449z"/><path d="m400.661 230.198h-101.467c-6.876 0-12.449-5.574-12.449-12.449 0-6.876 5.574-12.449 12.449-12.449h101.467c6.876 0 12.449 5.574 12.449 12.449 0 6.875-5.574 12.449-12.449 12.449z"/><path d="m346.471 278.337-47.277-1.55c-6.876 0-12.449-5.574-12.449-12.449 0-6.876 5.574-12.45 12.449-12.45l47.277 1.55c6.876 0 12.449 5.574 12.449 12.449 0 6.876-5.574 12.45-12.449 12.45z"/></g><g fill="#50405a"><path d="m400.661 323.376h-101.467c-6.876 0-12.449-5.574-12.449-12.449 0-6.876 5.574-12.449 12.449-12.449h101.467c6.876 0 12.449 5.574 12.449 12.449 0 6.875-5.574 12.449-12.449 12.449z"/><path d="m346.471 371.515-47.277-1.55c-6.876 0-12.449-5.574-12.449-12.449 0-6.876 5.574-12.449 12.449-12.449l47.277 1.55c6.876 0 12.449 5.574 12.449 12.449 0 6.875-5.574 12.449-12.449 12.449z"/></g><g><circle cx="93.656" cy="76.9" fill="#6978d8" r="17.209"/><circle cx="140.621" cy="76.9" fill="#545fc0" r="17.209"/><circle cx="187.585" cy="76.9" fill="#6978d8" r="17.209"/></g><path d="m222.846 151.971h-137.168c-13.913 0-25.193 11.279-25.193 25.193v166.432c0 13.913 11.279 25.193 25.193 25.193h137.168c13.913 0 25.193-11.279 25.193-25.193v-166.432c-.001-13.914-11.28-25.193-25.193-25.193z" fill="#6978d8"/><g><g><path d="m113.99 179.461c-7.671 0-13.89 6.219-13.89 13.89v68.137h27.78v-68.137c0-7.671-6.218-13.89-13.89-13.89z" fill="#362a40"/><path d="m180.872 179.461h-34.291c-13.182 0-23.868 10.686-23.868 23.868v58.159h82.027v-58.159c0-13.182-10.686-23.868-23.868-23.868z" fill="#362a40"/><path d="m205.621 284.917h-105.52c-8.866 0-16.053-7.187-16.053-16.053 0-8.866 7.187-16.053 16.053-16.053h105.52c8.866 0 16.053 7.187 16.053 16.053-.001 8.866-7.188 16.053-16.053 16.053z" fill="#d99a80"/><path d="m199.76 247.01v42.53c0 12.95-5.25 24.68-13.74 33.16-8.48 8.49-20.21 13.74-33.16 13.74-25.9 0-46.9-21-46.9-46.9v-42.53c0-1.8.1-3.57.3-5.31 2.64 4.67 7.66 7.82 13.41 7.82 8.38 0 15.19-6.71 15.38-15.05 5.49 9.02 15.41 15.05 26.73 15.05 15.87 0 28.98-11.83 30.99-27.15 4.43 7.16 6.99 15.6 6.99 24.64z" fill="#ecb99d"/><path d="m164.48 334.99c-3.72.95-7.61 1.45-11.62 1.45-25.9 0-46.9-21-46.9-46.9v-42.53c0-1.8.1-3.57.3-5.31 2.64 4.67 7.66 7.82 13.41 7.82 3.61 0 6.93-1.25 9.55-3.33-.01.27-.01.54-.01.82v42.53c0 21.89 14.99 40.28 35.27 45.45z" fill="#d99a80"/><g fill="#362a40"><path d="m120.343 205.178h-14.38v73.602c7.942 0 14.38-6.438 14.38-14.38z"/><path d="m199.758 205.178h-14.38v59.222c0 7.942 6.438 14.38 14.38 14.38z"/></g></g></g><g fill="#50405a"><path d="m424.472 425.952h-343.556c-6.876 0-12.449-5.574-12.449-12.449 0-6.876 5.574-12.449 12.449-12.449h343.556c6.876 0 12.449 5.574 12.449 12.449.001 6.875-5.573 12.449-12.449 12.449z"/><path d="m315.02 460.09c0 3.44-1.39 6.55-3.64 8.81-2.26 2.25-5.36 3.64-8.8 3.64h-183.18c-11.72-7.41-22.8-15.74-33.13-24.9h216.31c6.87 0 12.44 5.58 12.44 12.45z"/></g></g></svg>