<svg id="icons" enable-background="new 0 0 64 64" height="512" viewBox="0 0 64 64" width="512" xmlns="http://www.w3.org/2000/svg"><path d="m3 3.516v20.009h20.98 1.02l4 5v-6.75-18.259z" fill="#ed5565"/><path d="m47.5 31.516c-1.55-3.42-4.19-6.23-7.48-7.99h-1.02l-4.01 5v-6.75c-.98-.17-1.971-.26-2.99-.26s-2.03.09-3 .26v6.75l-4-5h-1.02c-4.801 2.561-8.211 7.359-8.86 13.01h-.01l-.11-.02h-1c-5.53 0-10 4.469-10 10 0 5.52 4.47 10 10 10h33.5c6.9 0 12.5-5.6 12.5-12.5 0-6.911-5.6-12.5-12.5-12.5z" fill="#e6e9ed"/><circle cx="41.5" cy="10.016" fill="#ffce54" r="1.5"/><path d="m34.99 21.775v-18.259h26.01v20.01h-4.01l-6-8-5.03 6.709-2.97-3.709-4 5h.01l-4.01 5zm8.01-11.759c0-.83-.67-1.5-1.5-1.5s-1.5.67-1.5 1.5.67 1.5 1.5 1.5 1.5-.67 1.5-1.5z" fill="#5d9cec"/><path d="m40.02 23.525h-1.02-.01l4-5 2.97 3.709-.97 1.291z" fill="#545c66"/><path d="m45.96 22.234 5.03-6.709 6 8h-12z" fill="#656d78"/><path d="m20 13.525-7 4v-8z" fill="#e6e9ed"/><path d="m4 46.516c0 5.52 4.47 10 10 10h33.5c6.9 0 12.5-5.6 12.5-12.5v3.969c0 6.9-5.6 12.5-12.5 12.5h-33.5c-5.53 0-10-4.479-10-10z" fill="#ccd1d9"/><path d="m32 33.516c4.41 0 8 3.59 8 8s-3.59 8-8 8-8-3.59-8-8 3.59-8 8-8z" fill="#656d78"/><path d="m34.996 29.526c-.11 0-.223-.019-.331-.057-.4-.141-.669-.519-.669-.943v-25.006c0-.553.447-1 1-1h26.002c.553 0 1 .447 1 1v20.002c0 .553-.447 1-1 1h-21.52l-3.7 4.629c-.194.242-.484.375-.782.375zm1-25.006v21.154l2.22-2.776c.189-.237.478-.376.781-.376h21.001v-18.002z"/><path d="m44.995 24.521c-.209 0-.419-.065-.599-.2-.442-.331-.532-.958-.2-1.399l6-8c.331-.442.959-.531 1.399-.2.442.331.532.958.2 1.399l-6 8c-.195.263-.495.4-.8.4z"/><path d="m56.997 24.521c-.305 0-.604-.138-.801-.4l-6-8c-.332-.441-.242-1.068.2-1.399.441-.332 1.068-.243 1.399.2l6 8c.332.441.242 1.068-.2 1.399-.179.135-.389.2-.598.2z"/><path d="m38.995 24.521c-.219 0-.439-.071-.624-.219-.431-.346-.501-.975-.156-1.406l4-5c.347-.429.975-.501 1.406-.156.431.346.501.975.156 1.406l-4 5c-.198.247-.488.375-.782.375z"/><path d="m45.964 23.23c-.294 0-.584-.129-.782-.375l-2.967-3.709c-.345-.432-.274-1.061.156-1.406.433-.346 1.061-.273 1.406.156l2.967 3.709c.345.432.274 1.061-.156 1.406-.185.148-.405.219-.624.219z"/><path d="m29.004 29.525c-.298 0-.588-.134-.781-.376l-3.7-4.629h-21.521c-.553 0-1-.447-1-1v-20.001c0-.553.447-1 1-1h26.002c.553 0 1 .447 1 1v25.007c0 .425-.269.803-.669.943-.108.038-.221.056-.331.056zm-25.002-7.004h21.001c.304 0 .592.139.781.376l2.22 2.776v-21.154h-24.002z"/><path d="m13.002 18.521c-.553 0-1-.447-1-1v-8c0-.553.447-1 1-1s1 .447 1 1v8c0 .552-.447 1-1 1z"/><path d="m13.003 18.521c-.348 0-.685-.181-.869-.504-.274-.479-.107-1.09.372-1.364l7-4c.479-.277 1.09-.107 1.364.372s.107 1.09-.372 1.364l-7 4c-.156.09-.327.132-.495.132z"/><path d="m20.001 14.521c-.168 0-.339-.042-.495-.132l-7-4c-.479-.274-.646-.885-.372-1.364.273-.48.884-.648 1.364-.372l7 4c.479.274.646.885.372 1.364-.184.323-.521.504-.869.504z"/><path d="m41.501 12.514c-1.379 0-2.5-1.121-2.5-2.5s1.121-2.5 2.5-2.5 2.5 1.121 2.5 2.5-1.121 2.5-2.5 2.5zm0-3c-.275 0-.5.225-.5.5s.225.5.5.5.5-.225.5-.5-.225-.5-.5-.5z"/><path d="m49 39.513c-.553 0-1-.447-1-1 0-5.919-3.245-11.33-8.47-14.121-.486-.26-.671-.866-.41-1.354.26-.486.865-.67 1.354-.41 5.876 3.14 9.526 9.226 9.526 15.885 0 .552-.447 1-1 1z"/><path d="m35.001 22.776c-.058 0-.116-.005-.176-.016-1.86-.329-3.802-.328-5.646-.001-.539.103-1.063-.267-1.159-.81-.097-.544.266-1.063.81-1.159 2.073-.369 4.255-.37 6.346.001.544.096.906.615.81 1.159-.088.486-.509.826-.985.826z"/><path d="m15 39.513c-.553 0-1-.447-1-1 0-6.648 3.643-12.73 9.505-15.873.486-.262 1.094-.078 1.354.408.262.487.078 1.093-.408 1.354-5.213 2.794-8.451 8.201-8.451 14.111 0 .552-.447 1-1 1z"/><path d="m47.5 57.511c-.553 0-1-.447-1-1s.447-1 1-1c6.341 0 11.5-5.158 11.5-11.499s-5.159-11.5-11.5-11.5c-.553 0-1-.447-1-1s.447-1 1-1c7.444 0 13.5 6.056 13.5 13.5 0 7.443-6.056 13.499-13.5 13.499z"/><path d="m14 57.511c-6.065 0-11-4.935-11-10.999 0-6.065 4.935-11 11-11 .553 0 1 .447 1 1s-.447 1-1 1c-4.963 0-9 4.037-9 9 0 4.962 4.037 8.999 9 8.999.553 0 1 .447 1 1s-.447 1-1 1z"/><path d="m47.5 57.511h-33.5c-.553 0-1-.447-1-1s.447-1 1-1h33.5c.553 0 1 .447 1 1s-.447 1-1 1z"/><path d="m15 37.512h-1c-.553 0-1-.447-1-1s.447-1 1-1h1c.553 0 1 .447 1 1s-.447 1-1 1z"/><path d="m47.5 61.481c-.553 0-1-.447-1-1s.447-1 1-1c6.341 0 11.5-5.158 11.5-11.499 0-.553.447-1 1-1s1 .447 1 1c0 7.444-6.056 13.499-13.5 13.499z"/><path d="m14 61.481c-6.065 0-11-4.935-11-10.999 0-.553.447-1 1-1s1 .447 1 1c0 4.962 4.037 8.999 9 8.999.553 0 1 .447 1 1s-.447 1-1 1z"/><path d="m47.5 61.481h-33.5c-.553 0-1-.447-1-1s.447-1 1-1h33.5c.553 0 1 .447 1 1s-.447 1-1 1z"/><path d="m60 48.982c-.553 0-1-.447-1-1v-3.971c0-.553.447-1 1-1s1 .447 1 1v3.971c0 .553-.447 1-1 1z"/><path d="m4 51.482c-.553 0-1-.447-1-1v-3.971c0-.553.447-1 1-1s1 .447 1 1v3.971c0 .553-.447 1-1 1z"/><path d="m32 50.516c-4.963 0-9-4.037-9-9s4.037-9 9-9 9 4.037 9 9-4.037 9-9 9zm0-16c-3.859 0-7 3.141-7 7s3.141 7 7 7 7-3.141 7-7-3.141-7-7-7z"/><path d="m35 42.516h-6c-.553 0-1-.447-1-1s.447-1 1-1h6c.553 0 1 .447 1 1s-.447 1-1 1z"/><path d="m32 45.516c-.553 0-1-.447-1-1v-6c0-.553.447-1 1-1s1 .447 1 1v6c0 .552-.447 1-1 1z"/></svg>